# xmcd CD database file
#
# Track frame offsets:
#	150
#	12046
#	24082
#	35605
#	48703
#	61864
#	72341
#	85807
#	97109
#	110251
#	119749
#	133187
#
# Disc length: 1935 seconds
#
# Revision: 0
# Processed by: cddbd v1.5.2PL0 Copyright (c) Steve Scherf et al.
# Submitted via: CDex 1.51
#
DISCID=a1078d0c
DTITLE=Die Hiatamadln - Jodeln Ist Modern
DYEAR=2001
DGENRE=Volkstümlich
TTITLE0=Jodeln Ist Modern
TTITLE1=Hiatamadlzeit
TTITLE2=Das Quetsch'n Pickerl
TTITLE3=Almenrausch
TTITLE4=Kesse Madln
TTITLE5=Na Guat, dann net
TTITLE6=Mei Nummer gegen Kummer
TTITLE7=A Busserl von Dir
TTITLE8=Der letzte Walzer
TTITLE9=Du bist der meine
TTITLE10=Keine Bange, keine Sorge
TTITLE11=Der Diandl - Rock Jodler
EXTD=YEAR: 2001
EXTT0=
EXTT1=
EXTT2=
EXTT3=
EXTT4=
EXTT5=
EXTT6=
EXTT7=
EXTT8=
EXTT9=
EXTT10=
EXTT11=
PLAYORDER=
